<mxfile host="Electron" agent="Mozilla/5.0 (Macintosh; Intel Mac OS X 10_15_7) AppleWebKit/537.36 (KHTML, like Gecko) draw.io/28.1.2 Chrome/138.0.7204.243 Electron/37.4.0 Safari/537.36" version="28.1.2">
  <diagram name="Page-1" id="d_2HB0VNC-Jv6TLMkcKq">
    <mxGraphModel dx="933" dy="2154" grid="1" gridSize="10" guides="1" tooltips="1" connect="1" arrows="1" fold="1" page="1" pageScale="1" pageWidth="1100" pageHeight="850" math="0" shadow="0">
      <root>
        <mxCell id="0" />
        <mxCell id="1" parent="0" />
        <mxCell id="RUH3TCP5YM-yDTSIz5qR-1" value="crm_cust_info" style="swimlane;fontStyle=0;childLayout=stackLayout;horizontal=1;startSize=30;horizontalStack=0;resizeParent=1;resizeParentMax=0;resizeLast=0;collapsible=1;marginBottom=0;whiteSpace=wrap;html=1;fillColor=#dae8fc;strokeColor=#6c8ebf;rounded=1;" vertex="1" parent="1">
          <mxGeometry x="320" y="340" width="140" height="90" as="geometry" />
        </mxCell>
        <mxCell id="RUH3TCP5YM-yDTSIz5qR-2" value="cst_id" style="text;strokeColor=none;fillColor=none;align=left;verticalAlign=middle;spacingLeft=4;spacingRight=4;overflow=hidden;points=[[0,0.5],[1,0.5]];portConstraint=eastwest;rotatable=0;whiteSpace=wrap;html=1;" vertex="1" parent="RUH3TCP5YM-yDTSIz5qR-1">
          <mxGeometry y="30" width="140" height="30" as="geometry" />
        </mxCell>
        <mxCell id="RUH3TCP5YM-yDTSIz5qR-3" value="cst_key" style="text;strokeColor=none;fillColor=none;align=left;verticalAlign=middle;spacingLeft=4;spacingRight=4;overflow=hidden;points=[[0,0.5],[1,0.5]];portConstraint=eastwest;rotatable=0;whiteSpace=wrap;html=1;" vertex="1" parent="RUH3TCP5YM-yDTSIz5qR-1">
          <mxGeometry y="60" width="140" height="30" as="geometry" />
        </mxCell>
        <mxCell id="RUH3TCP5YM-yDTSIz5qR-5" value="Customer Information" style="rounded=0;whiteSpace=wrap;html=1;fillColor=none;strokeColor=none;" vertex="1" parent="1">
          <mxGeometry x="330" y="310" width="120" height="30" as="geometry" />
        </mxCell>
        <mxCell id="RUH3TCP5YM-yDTSIz5qR-6" value="&lt;b&gt;CUSTOMER&lt;/b&gt;" style="rounded=1;whiteSpace=wrap;html=1;fillColor=#d5e8d4;strokeColor=#82b366;shadow=0;glass=0;" vertex="1" parent="1">
          <mxGeometry x="320" y="430" width="140" height="30" as="geometry" />
        </mxCell>
        <mxCell id="RUH3TCP5YM-yDTSIz5qR-7" value="crm_prd_info" style="swimlane;fontStyle=0;childLayout=stackLayout;horizontal=1;startSize=30;horizontalStack=0;resizeParent=1;resizeParentMax=0;resizeLast=0;collapsible=1;marginBottom=0;whiteSpace=wrap;html=1;fillColor=#dae8fc;strokeColor=#6c8ebf;rounded=1;" vertex="1" parent="1">
          <mxGeometry x="330" y="110" width="140" height="60" as="geometry" />
        </mxCell>
        <mxCell id="RUH3TCP5YM-yDTSIz5qR-8" value="prd_key" style="text;strokeColor=none;fillColor=none;align=left;verticalAlign=middle;spacingLeft=4;spacingRight=4;overflow=hidden;points=[[0,0.5],[1,0.5]];portConstraint=eastwest;rotatable=0;whiteSpace=wrap;html=1;" vertex="1" parent="RUH3TCP5YM-yDTSIz5qR-7">
          <mxGeometry y="30" width="140" height="30" as="geometry" />
        </mxCell>
        <mxCell id="RUH3TCP5YM-yDTSIz5qR-10" value="Current &amp;amp; History Product Information" style="rounded=0;whiteSpace=wrap;html=1;fillColor=none;strokeColor=none;" vertex="1" parent="1">
          <mxGeometry x="290" y="80" width="230" height="30" as="geometry" />
        </mxCell>
        <mxCell id="RUH3TCP5YM-yDTSIz5qR-11" value="&lt;b&gt;PRODUCT&lt;/b&gt;" style="rounded=0;whiteSpace=wrap;html=1;fillColor=#f8cecc;strokeColor=#b85450;" vertex="1" parent="1">
          <mxGeometry x="330" y="170" width="140" height="30" as="geometry" />
        </mxCell>
        <mxCell id="RUH3TCP5YM-yDTSIz5qR-13" value="crm_sales_details" style="swimlane;fontStyle=0;childLayout=stackLayout;horizontal=1;startSize=30;horizontalStack=0;resizeParent=1;resizeParentMax=0;resizeLast=0;collapsible=1;marginBottom=0;whiteSpace=wrap;html=1;fillColor=#dae8fc;strokeColor=#6c8ebf;rounded=1;" vertex="1" parent="1">
          <mxGeometry x="90" y="210" width="140" height="90" as="geometry" />
        </mxCell>
        <mxCell id="RUH3TCP5YM-yDTSIz5qR-14" value="prd_key" style="text;strokeColor=none;fillColor=none;align=left;verticalAlign=middle;spacingLeft=4;spacingRight=4;overflow=hidden;points=[[0,0.5],[1,0.5]];portConstraint=eastwest;rotatable=0;whiteSpace=wrap;html=1;" vertex="1" parent="RUH3TCP5YM-yDTSIz5qR-13">
          <mxGeometry y="30" width="140" height="30" as="geometry" />
        </mxCell>
        <mxCell id="RUH3TCP5YM-yDTSIz5qR-15" value="cst_id" style="text;strokeColor=none;fillColor=none;align=left;verticalAlign=middle;spacingLeft=4;spacingRight=4;overflow=hidden;points=[[0,0.5],[1,0.5]];portConstraint=eastwest;rotatable=0;whiteSpace=wrap;html=1;" vertex="1" parent="RUH3TCP5YM-yDTSIz5qR-13">
          <mxGeometry y="60" width="140" height="30" as="geometry" />
        </mxCell>
        <mxCell id="RUH3TCP5YM-yDTSIz5qR-16" value="Transactional Records about Sales &amp;amp; Orders" style="rounded=0;whiteSpace=wrap;html=1;fillColor=none;strokeColor=none;" vertex="1" parent="1">
          <mxGeometry x="90" y="180" width="140" height="30" as="geometry" />
        </mxCell>
        <mxCell id="RUH3TCP5YM-yDTSIz5qR-17" value="&lt;b&gt;SALES&lt;/b&gt;" style="rounded=1;whiteSpace=wrap;html=1;fillColor=#e1d5e7;strokeColor=#9673a6;" vertex="1" parent="1">
          <mxGeometry x="90" y="300" width="140" height="30" as="geometry" />
        </mxCell>
        <mxCell id="RUH3TCP5YM-yDTSIz5qR-20" style="edgeStyle=orthogonalEdgeStyle;rounded=0;orthogonalLoop=1;jettySize=auto;html=1;exitX=1;exitY=0.5;exitDx=0;exitDy=0;entryX=0;entryY=0.5;entryDx=0;entryDy=0;" edge="1" parent="1" source="RUH3TCP5YM-yDTSIz5qR-14" target="RUH3TCP5YM-yDTSIz5qR-8">
          <mxGeometry relative="1" as="geometry" />
        </mxCell>
        <mxCell id="RUH3TCP5YM-yDTSIz5qR-21" style="edgeStyle=orthogonalEdgeStyle;rounded=0;orthogonalLoop=1;jettySize=auto;html=1;exitX=1;exitY=0.5;exitDx=0;exitDy=0;entryX=0;entryY=0.5;entryDx=0;entryDy=0;" edge="1" parent="1" source="RUH3TCP5YM-yDTSIz5qR-15" target="RUH3TCP5YM-yDTSIz5qR-2">
          <mxGeometry relative="1" as="geometry" />
        </mxCell>
        <mxCell id="RUH3TCP5YM-yDTSIz5qR-22" value="erp_px_cat_g1v2" style="swimlane;fontStyle=0;childLayout=stackLayout;horizontal=1;startSize=30;horizontalStack=0;resizeParent=1;resizeParentMax=0;resizeLast=0;collapsible=1;marginBottom=0;whiteSpace=wrap;html=1;rounded=1;fillColor=#fff2cc;strokeColor=#d6b656;" vertex="1" parent="1">
          <mxGeometry x="643" y="109" width="140" height="60" as="geometry" />
        </mxCell>
        <mxCell id="RUH3TCP5YM-yDTSIz5qR-23" value="id" style="text;strokeColor=none;fillColor=none;align=left;verticalAlign=middle;spacingLeft=4;spacingRight=4;overflow=hidden;points=[[0,0.5],[1,0.5]];portConstraint=eastwest;rotatable=0;whiteSpace=wrap;html=1;" vertex="1" parent="RUH3TCP5YM-yDTSIz5qR-22">
          <mxGeometry y="30" width="140" height="30" as="geometry" />
        </mxCell>
        <mxCell id="RUH3TCP5YM-yDTSIz5qR-25" value="Product Categories" style="rounded=0;whiteSpace=wrap;html=1;fillColor=none;strokeColor=none;" vertex="1" parent="1">
          <mxGeometry x="653" y="79" width="120" height="30" as="geometry" />
        </mxCell>
        <mxCell id="RUH3TCP5YM-yDTSIz5qR-26" value="PRODUCT" style="rounded=0;whiteSpace=wrap;html=1;fillColor=#f8cecc;strokeColor=#b85450;" vertex="1" parent="1">
          <mxGeometry x="643" y="169" width="140" height="30" as="geometry" />
        </mxCell>
        <mxCell id="RUH3TCP5YM-yDTSIz5qR-27" style="edgeStyle=orthogonalEdgeStyle;rounded=0;orthogonalLoop=1;jettySize=auto;html=1;entryX=1;entryY=0.5;entryDx=0;entryDy=0;" edge="1" parent="1" source="RUH3TCP5YM-yDTSIz5qR-23" target="RUH3TCP5YM-yDTSIz5qR-8">
          <mxGeometry relative="1" as="geometry" />
        </mxCell>
        <mxCell id="RUH3TCP5YM-yDTSIz5qR-28" value="erp_cust_az12" style="swimlane;fontStyle=0;childLayout=stackLayout;horizontal=1;startSize=30;horizontalStack=0;resizeParent=1;resizeParentMax=0;resizeLast=0;collapsible=1;marginBottom=0;whiteSpace=wrap;html=1;fillColor=#fff2cc;strokeColor=#d6b656;rounded=1;" vertex="1" parent="1">
          <mxGeometry x="650" y="260" width="140" height="60" as="geometry" />
        </mxCell>
        <mxCell id="RUH3TCP5YM-yDTSIz5qR-29" value="cid" style="text;strokeColor=none;fillColor=none;align=left;verticalAlign=middle;spacingLeft=4;spacingRight=4;overflow=hidden;points=[[0,0.5],[1,0.5]];portConstraint=eastwest;rotatable=0;whiteSpace=wrap;html=1;" vertex="1" parent="RUH3TCP5YM-yDTSIz5qR-28">
          <mxGeometry y="30" width="140" height="30" as="geometry" />
        </mxCell>
        <mxCell id="RUH3TCP5YM-yDTSIz5qR-31" value="Extra Customer Information (Birthdate)" style="rounded=0;whiteSpace=wrap;html=1;fillColor=none;strokeColor=none;" vertex="1" parent="1">
          <mxGeometry x="615" y="230" width="210" height="30" as="geometry" />
        </mxCell>
        <mxCell id="RUH3TCP5YM-yDTSIz5qR-32" value="&lt;b&gt;CUSTOMER&lt;/b&gt;" style="rounded=0;whiteSpace=wrap;html=1;fillColor=#d5e8d4;strokeColor=#82b366;" vertex="1" parent="1">
          <mxGeometry x="650" y="320" width="140" height="30" as="geometry" />
        </mxCell>
        <mxCell id="RUH3TCP5YM-yDTSIz5qR-33" style="edgeStyle=orthogonalEdgeStyle;rounded=0;orthogonalLoop=1;jettySize=auto;html=1;entryX=1;entryY=0.5;entryDx=0;entryDy=0;" edge="1" parent="1" source="RUH3TCP5YM-yDTSIz5qR-29" target="RUH3TCP5YM-yDTSIz5qR-2">
          <mxGeometry relative="1" as="geometry" />
        </mxCell>
        <mxCell id="RUH3TCP5YM-yDTSIz5qR-34" value="crm_cust_info" style="swimlane;fontStyle=0;childLayout=stackLayout;horizontal=1;startSize=30;horizontalStack=0;resizeParent=1;resizeParentMax=0;resizeLast=0;collapsible=1;marginBottom=0;whiteSpace=wrap;html=1;fillColor=#fff2cc;strokeColor=#d6b656;rounded=1;" vertex="1" parent="1">
          <mxGeometry x="650" y="410" width="140" height="60" as="geometry" />
        </mxCell>
        <mxCell id="RUH3TCP5YM-yDTSIz5qR-35" value="cid" style="text;strokeColor=none;fillColor=none;align=left;verticalAlign=middle;spacingLeft=4;spacingRight=4;overflow=hidden;points=[[0,0.5],[1,0.5]];portConstraint=eastwest;rotatable=0;whiteSpace=wrap;html=1;" vertex="1" parent="RUH3TCP5YM-yDTSIz5qR-34">
          <mxGeometry y="30" width="140" height="30" as="geometry" />
        </mxCell>
        <mxCell id="RUH3TCP5YM-yDTSIz5qR-37" value="Location of Customers (Country)" style="rounded=0;whiteSpace=wrap;html=1;fillColor=none;strokeColor=none;" vertex="1" parent="1">
          <mxGeometry x="630" y="380" width="190" height="30" as="geometry" />
        </mxCell>
        <mxCell id="RUH3TCP5YM-yDTSIz5qR-38" value="&lt;b&gt;CUSTOMER&lt;/b&gt;" style="rounded=0;whiteSpace=wrap;html=1;fillColor=#d5e8d4;strokeColor=#82b366;" vertex="1" parent="1">
          <mxGeometry x="650" y="471" width="140" height="30" as="geometry" />
        </mxCell>
        <mxCell id="RUH3TCP5YM-yDTSIz5qR-39" style="edgeStyle=orthogonalEdgeStyle;rounded=0;orthogonalLoop=1;jettySize=auto;html=1;entryX=1;entryY=0.5;entryDx=0;entryDy=0;" edge="1" parent="1" source="RUH3TCP5YM-yDTSIz5qR-35" target="RUH3TCP5YM-yDTSIz5qR-2">
          <mxGeometry relative="1" as="geometry" />
        </mxCell>
        <mxCell id="RUH3TCP5YM-yDTSIz5qR-40" value="" style="rounded=1;whiteSpace=wrap;html=1;fillColor=none;dashed=1;" vertex="1" parent="1">
          <mxGeometry x="60" y="40" width="460" height="500" as="geometry" />
        </mxCell>
        <mxCell id="RUH3TCP5YM-yDTSIz5qR-41" value="&lt;b&gt;&lt;font style=&quot;font-size: 24px;&quot;&gt;CRM&lt;/font&gt;&lt;/b&gt;" style="rounded=1;whiteSpace=wrap;html=1;fillColor=#dae8fc;strokeColor=#6c8ebf;" vertex="1" parent="1">
          <mxGeometry x="230" y="20" width="120" height="30" as="geometry" />
        </mxCell>
        <mxCell id="RUH3TCP5YM-yDTSIz5qR-42" value="" style="rounded=1;whiteSpace=wrap;html=1;fillColor=none;dashed=1;" vertex="1" parent="1">
          <mxGeometry x="600" y="40" width="240" height="500" as="geometry" />
        </mxCell>
        <mxCell id="RUH3TCP5YM-yDTSIz5qR-43" value="&lt;b&gt;&lt;font style=&quot;font-size: 24px;&quot;&gt;ERP&lt;/font&gt;&lt;/b&gt;" style="rounded=1;whiteSpace=wrap;html=1;fillColor=#fff2cc;strokeColor=#d6b656;" vertex="1" parent="1">
          <mxGeometry x="663" y="23" width="120" height="30" as="geometry" />
        </mxCell>
        <mxCell id="RUH3TCP5YM-yDTSIz5qR-44" value="Entreprise Resource Planning" style="rounded=0;whiteSpace=wrap;html=1;fillColor=none;strokeColor=none;" vertex="1" parent="1">
          <mxGeometry x="570" y="2" width="310" height="22" as="geometry" />
        </mxCell>
        <mxCell id="RUH3TCP5YM-yDTSIz5qR-45" value="Customer Relationship Management" style="rounded=0;whiteSpace=wrap;html=1;fillColor=none;strokeColor=none;" vertex="1" parent="1">
          <mxGeometry x="140" y="-2" width="310" height="22" as="geometry" />
        </mxCell>
        <mxCell id="RUH3TCP5YM-yDTSIz5qR-46" value="&lt;b&gt;&lt;font style=&quot;font-size: 40px;&quot;&gt;Data Integartion&lt;/font&gt;&lt;/b&gt;" style="rounded=0;whiteSpace=wrap;html=1;" vertex="1" parent="1">
          <mxGeometry x="280" y="-110" width="440" height="60" as="geometry" />
        </mxCell>
      </root>
    </mxGraphModel>
  </diagram>
</mxfile>
